<?xml version="1.0" encoding="UTF-8"?>
<svg xmlns="http://www.w3.org/2000/svg" width="968" height="719" viewBox="0 0 968 719" fill="none">
  <path d="M762 0C770 0.5 771.1 1.70051 774.7 4.60051C776.8 6.30051 779.5 9.40051 780.7 11.6005C782.4 14.5005 783 17.1005 783 22.0005C783 26.4005 782.3 30.0005 780.9 33.0005C779.8 35.5005 773.9 45.1005 756.5 71.1005L745.7 71.0005C739.8 71.0005 734.8 70.7005 734.6 70.2005C734.4 69.8005 737 62.7005 746.7 39.5005L744.1 36.5005C742.6 34.8005 740.8 31.7005 740.1 29.5005C739.3 27.3005 738.9 23.0005 739.1 19.8005C739.4 15.5005 740.2 13.2005 742.6 9.90051C744.3 7.50051 747.4 4.50051 749.6 3.20051C753 1.20051 754.5 0.5 762 0ZM851.5 5.50051C857.5 5.80051 866.3 6.70051 871 7.60051C875.7 8.50051 883.3 10.4005 888 12.0005C892.7 13.5005 899.8 16.4005 903.7 18.4005C907.7 20.4005 911.3 22.6005 911.6 23.2005C911.9 23.9005 908.5 32.4005 904 42.0005C899.5 51.6005 895.4 59.9005 894.9 60.5005C894.4 61.1005 890.6 59.9005 884.3 56.8005C878.9 54.2005 869.8 50.5005 864 48.6005C858.2 46.7005 850.3 44.8005 846.5 44.4005C839.8 43.7005 839.4 43.8005 836.7 46.3005C834.7 48.3005 834.2 49.6005 834.6 51.2005C835 52.5005 836 54.3005 836.9 55.3005C837.8 56.3005 840.7 57.9005 843.5 59.0005C846.2 60.1005 854.1 62.6005 861 64.6005C867.9 66.6005 876.8 69.5005 880.7 71.1005C884.7 72.7005 889.7 75.1005 891.7 76.4005C893.8 77.6005 897.7 80.9005 900.3 83.6005C903 86.3005 906.2 90.7005 907.5 93.5005C908.9 96.2005 910.4 101.701 910.9 105.501C911.6 110.001 911.6 115.201 911 120.001C910.4 124.601 908.9 129.801 907.1 133.501C905.5 136.801 901.9 141.701 899.2 144.501C896.5 147.201 891.2 151.201 887.4 153.201C883.6 155.201 876.9 157.901 872.5 159.001C867.5 160.301 860 161.301 852.5 161.701C844.2 162.001 837.4 161.701 830.5 160.601C825 159.801 816.5 157.901 811.5 156.501C806.5 155.001 798.7 152.1 794 149.9C789.3 147.7 782.9 144.201 779.8 142.201C776.6 140.201 774 137.801 774 137.001C774 136.201 777.8 127.601 782.6 118.001C787.3 108.401 791.4 100.401 791.6 100.201C791.8 100.101 795.9 102.601 800.7 105.801C805.6 109.001 813.5 113.301 818.5 115.401C823.5 117.501 831.1 120.101 835.5 121.201C840.7 122.501 845.7 123.101 849.6 122.901C854 122.601 856.4 121.901 857.9 120.501C859.2 119.301 860.1 117.301 860.1 115.501C860.1 113.701 859.2 111.701 857.8 110.401C856.5 109.201 853.6 107.601 851.2 106.701C848.9 105.701 840.4 103.101 832.2 100.901C824.1 98.6005 814.6 95.6005 811 94.1005C807.4 92.7005 802.1 89.7005 799.1 87.5005C796.1 85.3005 792.3 81.7005 790.6 79.5005C788.9 77.3005 786.7 73.2005 785.7 70.5005C784.7 67.7005 783.6 62.6005 783.3 59.0005C782.9 55.4005 783.2 49.6005 783.9 46.0005C784.6 42.4005 786.4 37.0005 787.8 34.0005C789.2 31.0005 792.9 26.0005 795.9 22.9005C799.2 19.6005 804.4 15.8005 808.5 13.8005C812.3 11.8005 818 9.50051 821 8.60051C824 7.70051 829.6 6.60051 833.5 6.10051C837.3 5.50051 845.5 5.30051 851.5 5.50051ZM99.9996 9.00051L101.9 17.2005C102.9 21.8005 108.2 43.5005 113.6 65.5005C119 87.5005 123.6 104.601 123.8 103.501C124.1 102.401 129.3 80.8005 146.6 9.50051L195.5 9.00051L207.5 57.2005C214.1 83.7005 219.6 104.701 219.8 103.901C219.9 103.201 225.1 81.6005 242.5 9.50051H268C290.1 9.50051 293.5 9.70051 293.2 11.0005C293.1 11.8005 281.8 45.5005 243.5 159.001H192L191.2 155.701C190.7 154.001 185.9 134.601 180.4 112.801C175 90.9005 170.2 73.4005 169.9 73.8005C169.6 74.2005 164.4 93.5005 147.5 159.001H95.9996L90.0996 141.201C86.8996 131.501 75.5996 98.1005 65.1996 67.0005C54.6996 35.9005 46.3996 10.2005 46.6996 9.70051C47.0996 9.30051 59.1996 9.00051 99.9996 9.00051ZM298 9.00051H349V67.0005H394V9.00051H444V159.001H394V105.001H349V159.001H298V9.00051ZM512.4 9.00051H564L565.4 12.7005C566.2 14.8005 579.7 48.2005 595.4 87.0005C611.2 125.801 624 157.801 624 158.301C624 158.701 612.1 159.001 571 159.001L569.1 153.701C568.1 150.901 566.5 146.101 564 138.001H508.5L501.3 158.501L475.6 158.701C451.7 159.001 450 158.901 450.4 157.201C450.6 156.301 464.6 122.501 481.6 82.2005L512.4 9.00051ZM522.3 100.801C522 101.801 525.4 102.101 536.5 102.101C544.4 102.101 551 101.901 551 101.801C551 101.701 548 93.0005 544.4 82.5005C540.7 72.1005 537.5 63.0005 537.1 62.3005C536.8 61.6005 533.3 69.7005 529.5 80.3005C525.7 90.9005 522.5 100.101 522.3 100.801ZM595 9.00051H730V49.0005H687V159.001H637V49.0005H595V9.00051ZM398 177.501C410.1 177.701 415.1 178.301 421 180.001C425.1 181.201 431.6 183.701 435.5 185.501C439.3 187.301 445.8 191.501 450 194.701C454.1 198.001 459.7 203.601 462.4 207.101C465.1 210.601 468.7 216.701 470.5 220.501C472.3 224.401 474.5 230.201 475.4 233.501C476.3 236.901 477.3 244.001 477.6 249.501C478 255.901 477.8 262.5 477 267.5C476.3 271.9 474.5 278.9 473 283C471.5 287.2 469 292.6 467.5 295C466 297.5 462.9 302 460.6 304.9C458.3 307.9 453.8 312.4 450.5 315C447.2 317.7 442 321.2 439 322.9C435.9 324.6 430.3 327.1 426.5 328.4C422.6 329.7 416.3 331.3 412.5 332C407.9 332.9 400.6 333.1 391.5 332.8C381.3 332.4 375.4 331.7 370 330.1C365.8 328.9 358.4 325.8 353.5 323.3C346.6 319.7 342.5 316.7 336.4 310.6C331.7 306 326.5 299.5 324.2 295.5C321.9 291.7 318.9 285.2 317.6 281C316.2 276.9 314.6 269.3 314 264C313.4 258.8 313.2 252.101 313.5 249.001C313.8 246.001 314.8 240.201 315.6 236.001C316.4 231.901 319.1 224.501 321.4 219.501C324.7 212.601 327.5 208.601 333.6 202.201C337.9 197.601 344.4 192.001 348 189.801C351.5 187.601 357.6 184.501 361.5 183.001C365.3 181.401 371.6 179.501 375.5 178.601C380.6 177.501 386.5 177.201 398 177.501ZM377.1 226.801C373.6 229.901 370.7 233.801 368.6 238.001C365.7 244.001 365.5 245.301 365.5 254.501C365.5 262.401 366 265.7 367.7 270.1C368.9 273.1 371.8 277.8 374.2 280.6C376.7 283.3 381 286.8 384 288.3C388.3 290.5 390.8 291.1 396 291.1C400.7 291 403.8 290.401 407.5 288.701C410.2 287.401 414.1 284.5 416.2 282.4C418.2 280.3 421.1 275.9 422.7 272.6C425.2 267 425.5 265.601 425.4 254.601C425.4 244.301 425.1 241.901 423.2 237.801C422 235.201 419.1 231 416.7 228.4C414.4 225.8 410.2 222.7 407.5 221.4C403.9 219.7 400.8 219.101 396.5 219.101C393.2 219.201 388.7 219.801 386.5 220.601C384.3 221.301 380.1 224.101 377.1 226.801ZM220.4 180.501L234.7 208.101C242.6 223.201 249.2 235.801 249.4 236.001C249.7 236.301 256.2 223.801 278 180.001H302.5C315.9 180.001 327.1 180.401 327.3 180.801C327.5 181.201 315.9 204.3 275.1 282.6L275 330.1H224L223.9 283.6L197.5 233.101C182.9 205.301 171 182.001 171 181.301C171 180.301 176.3 180.101 220.4 180.501ZM489 180.001H539L539.5 275.5L542.2 280.3C543.9 283.2 546.8 286.2 549.7 288.1C553.5 290.4 555.6 291.1 559.7 291.1C562.9 291.1 566.5 290.3 569 289.1C571.2 287.9 574 285.6 575.2 283.8C576.4 282 578 278.5 578.7 276C579.7 272.6 580 260.601 580 180.001H629.6L629.4 283.5L626.7 291C625.2 295.2 622.5 300.9 620.7 303.8C618.9 306.8 615 311.6 612 314.5C608.9 317.5 603.8 321.6 600.5 323.5C597.2 325.5 590.9 328.3 586.5 329.8C578.9 332.3 577.4 332.5 560 332.5C542.5 332.5 541 332.3 533.5 329.8C529.1 328.3 522.6 325.4 519 323.3C515.4 321.2 509.8 316.9 506.4 313.5C502.1 309.3 499.1 305.1 496.1 299.1C493.8 294.4 491.3 287.4 490.5 283.6C489.3 278 489 266.801 489 228.301V180.001ZM644.1 179.9L689.3 180.301C729.2 180.601 735.2 180.8 741 182.4C744.6 183.5 750.4 185.701 754 187.501C757.6 189.301 762.5 192.601 765 194.701C767.5 196.901 771 201.101 772.9 204.101C774.9 207.101 777.3 212.201 778.3 215.501C779.7 219.901 780.3 224.701 780.4 233.001C780.4 239.801 779.9 246.801 779.1 250.001C778.4 253.001 776.4 258.4 774.7 262C772.6 266.5 769.6 270.6 758 282L772 305.201C779.7 318.001 785.6 328.801 785.2 329.201C784.8 329.701 772.2 329.9 729.7 329.5L712.2 291.5L695 291V330H644L644.1 179.9ZM695 253.001C721 252.601 723.2 252.301 725.5 250.501C727 249.401 729.2 247.301 730.3 245.701C731.7 243.801 732.6 240.901 732.9 237.201C733.2 232.901 732.7 230.401 731.1 227.001C729.9 224.401 727.7 221.701 725.7 220.501C723 218.801 720.3 218.501 708.8 218.201L695.1 217.801L695 253.001ZM180 351L222.5 351.1L279.5 425.3L280 351H326V501L283.6 500.5L226 426V501H180V351ZM340 351H467V389H390V406H460V445H390V462L468.5 462.5L469 501H340V351ZM535.5 351L546 367.9C551.8 377.3 556.8 384.7 557 384.4C557.3 384.1 562.1 376.6 577.6 351.5L606.1 351.3C621.7 351.2 634.9 351.4 635.3 351.8C635.8 352.2 625.5 368.3 588.9 422.5L606.2 448C615.7 462.1 627.4 479.4 632.2 486.5C637.1 493.7 640.8 499.9 640.5 500.3C640.3 500.7 626.9 501 581.5 501L557 463L551.3 471.8C548.1 476.6 542.6 485.1 532.5 501H503.8C481.4 501 475.1 500.8 475.1 499.8C475.1 499.1 486.2 482.6 499.7 463C513.2 443.5 524.6 426.9 525.1 426C525.7 424.9 519.6 414.9 502 388.5C488.9 368.7 478.4 352.2 478.6 351.8C478.9 351.4 491.8 351 535.5 351ZM643 351H778.6L778.5 390.5L736 391V501H686V391L643.5 390.5L643 351ZM353.6 517.801C358 518.101 366 519.101 371.3 520.101C376.7 521.201 384.1 523.201 387.8 524.601C391.6 526.001 398 529.001 402.1 531.201C406.2 533.401 412.1 537.201 415.1 539.501C418.1 541.801 423.3 546.601 426.6 550.101C429.9 553.701 435 560.401 437.9 565.001C440.7 569.701 444.5 577.201 446.1 581.801C447.7 586.301 449.8 594.201 450.7 599.301C451.9 606.101 452.2 612.101 451.8 622.001C451.4 631.001 450.5 638.401 449.1 644.001C447.9 648.701 445.3 656.101 443.2 660.501C441.2 664.901 437.7 671.201 435.5 674.501C433.4 677.801 429.1 683.101 426.1 686.401C423.1 689.701 417.9 694.401 414.6 696.901C411.3 699.401 405 703.401 400.6 705.701C396.2 708.101 389.2 711.101 385.1 712.501C381 713.901 374 715.701 369.6 716.601C364.7 717.501 355.7 718.101 346.6 718.101C337 718.101 328.5 717.501 323.1 716.501C318.4 715.601 311.4 713.701 307.6 712.301C303.7 710.901 297.2 708.101 293.1 705.901C289 703.801 281.9 699.101 277.3 695.601C272.7 691.901 266.2 685.401 262.6 680.801C259 676.201 254 668.501 251.6 663.501C249.1 658.601 245.9 650.001 244.4 644.501C242 635.601 241.7 632.701 241.7 618.001C241.7 604.301 242 600.101 243.9 592.801C245.1 588.001 247.5 580.801 249.2 576.801C250.8 572.801 254.6 565.901 257.5 561.501C260.5 557.101 266.3 550.301 270.5 546.301C274.7 542.301 280.7 537.401 283.8 535.401C287 533.301 293.4 529.901 298.1 527.701C302.8 525.501 310.9 522.701 316.1 521.301C321.3 520.001 330.1 518.601 335.6 518.201C341.1 517.801 349.2 517.601 353.6 517.801ZM330.1 576.101C327.1 577.701 322.9 580.701 320.9 582.801C318.9 584.801 315.6 589.201 313.7 592.501C311.7 595.801 309.4 601.601 308.6 605.301C307.8 609.001 307.1 614.801 307.1 618.301C307.1 621.701 307.8 627.201 308.6 630.501C309.5 633.801 311.2 638.601 312.4 641.001C313.6 643.501 316.3 647.701 318.3 650.301C320.4 652.901 324.5 656.601 327.3 658.501C330.2 660.401 335.3 662.701 338.6 663.601C342.4 664.701 346.6 665.101 350.1 664.801C353.1 664.601 358.2 663.101 361.3 661.701C364.5 660.201 369.2 657.101 371.8 654.701C374.5 652.301 378 647.601 379.8 644.401C381.5 641.201 383.6 635.801 384.5 632.501C385.3 629.201 386.1 622.701 386.1 618.001C386.1 613.401 385.4 606.801 384.5 603.501C383.7 600.201 381.5 594.901 379.8 591.701C378 588.401 374.5 583.801 371.8 581.401C369.2 579.001 364.7 575.901 361.8 574.501C358.6 573.001 354.1 571.901 350.1 571.601C346.5 571.301 341.8 571.601 339.6 572.101C337.4 572.701 333.1 574.501 330.1 576.101ZM908.1 519.501C919 519.801 924.4 520.401 929.8 521.901C933.8 523.101 939 525.001 941.3 526.201C943.7 527.301 947.8 529.901 950.5 531.901C953.2 533.901 957.2 538.001 959.3 541.001C961.4 544.101 964.1 549.501 965.2 553.001C966.5 557.601 967.1 562.401 967.1 569.001C967.1 576.001 966.6 580.101 965.1 584.501C963.9 587.801 961.1 593.001 958.8 596.001C956.6 599.101 948.3 607.801 940.5 615.501C932.7 623.201 925.6 631.001 924.7 632.801C923.8 634.601 922.6 638.301 921.1 646.001H875.1V641.301C875.1 638.701 875.8 634.101 876.6 631.001C877.4 628.001 879.5 622.701 881.3 619.201C883.5 615.001 888.3 608.901 895.3 601.401C901.3 595.201 906.8 588.501 907.6 586.501C908.4 584.601 909.1 581.101 909.1 578.801C909.1 576.001 908.4 573.601 907.1 571.801C905.8 570.001 903.8 568.801 901.3 568.401C899.3 568.101 896 568.301 894 568.901C892 569.601 889.4 571.501 888.1 573.301C886.6 575.301 885.3 579.101 883.6 590.101L836.1 590.001L836.7 582.301C837 578.001 837.9 571.401 838.8 567.501C839.6 563.701 842 556.801 844.2 552.301C847.1 546.001 849.8 542.401 855.1 537.001C860.4 531.701 864.1 529.101 870.3 526.101C874.9 524.001 881.1 521.701 884.1 521.101C887.1 520.501 890.5 519.801 891.6 519.601C892.7 519.301 900.1 519.301 908.1 519.501ZM0.0996094 522.001L68.0996 522.501L91.3996 571.201C104.1 598.001 114.8 619.801 115.1 619.601C115.4 619.401 125.9 597.401 161.6 522.001H230.1V714.001H173.1L172.6 612.901L135.6 696.101L93.6996 695.501L56.5996 612.201L56.0996 714.001H0.0996094V522.001ZM505.4 522.601L524.5 583.201C535 616.601 543.8 644.101 544.1 644.401C544.3 644.701 553.1 617.701 563.6 584.401C574 551.101 582.8 523.501 583.1 523.001C583.3 522.501 598 522.201 648.7 522.601L575.6 714.101L508.9 713.601L473 618.601C453.2 566.301 437 523.201 437.1 522.801C437.1 522.401 452.5 522.201 505.4 522.601ZM658.1 522.101H821.1V571.101H723.1V593.101H812.1V642.101H723.1V665.101H824.1V714.101H658.1V522.101ZM900.6 659.801C903.3 660.001 907.8 661.301 910.6 662.601C913.3 663.801 917 666.601 918.8 668.701C920.5 670.801 922.7 674.801 923.6 677.601C924.8 681.101 925.2 684.701 924.9 690.101C924.7 694.701 923.8 699.101 922.5 701.601C921.5 703.801 918.8 707.301 916.6 709.401C914.3 711.501 910.4 713.801 907.6 714.701C904.1 715.901 900.1 716.201 894.6 715.901C888.2 715.601 885.6 714.901 881.8 712.801C879.2 711.301 875.7 708.201 874 705.801C872.3 703.501 870.5 699.801 869.9 697.601C869.4 695.401 868.9 690.601 868.9 687.101C868.9 683.301 869.6 678.901 870.5 676.601C871.4 674.401 873.3 671.101 874.6 669.301C876 667.501 879 664.901 881.3 663.601C883.7 662.201 887.8 660.701 890.6 660.201C893.3 659.701 897.8 659.501 900.6 659.801Z" fill="white"></path>
</svg>
