<?xml version="1.0" encoding="UTF-8"?>
<svg xmlns="http://www.w3.org/2000/svg" id="Pink" viewBox="0 0 226.77 226.77">
  <defs>
    <style>.cls-1{fill:#ff3f9a;}.cls-2,.cls-3{fill:none;stroke:#ff3f9a;stroke-linecap:round;stroke-miterlimit:10;stroke-width:4px;}.cls-3{stroke-dasharray:4 10;}.cls-4{font-size:12px;font-family:MyriadPro-Regular, Myriad Pro;}.cls-5{letter-spacing:-0.01em;}.cls-6{letter-spacing:-0.01em;}.cls-7{letter-spacing:-0.01em;}.cls-8{letter-spacing:-0.01em;}</style>
  </defs>
  <g id="_011---USA-" data-name="011---USA-">
    <g id="Layer_2" data-name="Layer 2">
      <g id="Shape">
        <path class="cls-1" d="M202.21,42.89a7.86,7.86,0,0,1,2.37.37A16.67,16.67,0,0,1,212.24,49a13.45,13.45,0,0,1,4.09,11.31,12.26,12.26,0,0,1-4.8,6.74,14.89,14.89,0,0,0-2.05,2,13.74,13.74,0,0,0-1.5,5.62,35,35,0,0,1-.95,4.41,35.3,35.3,0,0,1-4.83,9.76c-.58.94-1.2,1.85-1.74,2.83a12.82,12.82,0,0,0-2.15,9.46,16.5,16.5,0,0,0,1.81,3.46,16.75,16.75,0,0,1,3.13,8.15c.27,6-3.78,9.79-7.19,12.85l-1.7,1.58a25.18,25.18,0,0,0-4.83,26.8c.34.79.74,1.58,1.12,2.37a27.61,27.61,0,0,1,2.76,7.16c1.24,5-1,10.31-5.35,12.4a7.17,7.17,0,0,1-2.56.48c-3.12,0-6.32-2.05-9.26-6a67.59,67.59,0,0,1-7.18-12.21,7.85,7.85,0,0,1-2.86.54,7.3,7.3,0,0,1-1.4-.13,16.52,16.52,0,0,1-3.78-1.28,12.16,12.16,0,0,0-2.25-.83,4.43,4.43,0,0,0-1-.11c-3.44,0-6.93,3.7-8.79,6.07a10,10,0,0,1-3.71,3.24,8.63,8.63,0,0,1-2.83.48,8.76,8.76,0,0,1-4-1h-.58a15,15,0,0,0-4.47-.68,16,16,0,0,0-12.83,6.75,32.74,32.74,0,0,0-1.77,3.31,46.66,46.66,0,0,1-2.83,5.21,7.5,7.5,0,0,1-6.13,4.1h-.58c-4.56-.49-7.08-6.37-9.13-11.11-.51-1.13-1-2.34-1.36-2.91a6.9,6.9,0,0,0-3.4-2.82H89.91a7.88,7.88,0,0,1-4.09,0,2.34,2.34,0,0,1-.51-.23l-.55-.26A12,12,0,0,1,80,161.16a13.61,13.61,0,0,0-1.09-1.85,12,12,0,0,0-4.56-3.77,30.28,30.28,0,0,0-9.13-1.85l-4.36-.49a35.67,35.67,0,0,1-6.06-1.62h-.41a81.68,81.68,0,0,1-11.07-5.16c-11-5.77-21.8-13.3-27.86-27a50.8,50.8,0,0,1-2.86-8.18A95.08,95.08,0,0,1,11,80c.55-13.51,5.11-31.62,5.11-31.62a9.83,9.83,0,0,1,3.4-2.53A21.81,21.81,0,0,1,29.61,43.3a21.09,21.09,0,0,1,5.5.72,233.25,233.25,0,0,0,46.15,9.15c2.48.19,5,.42,7.52.42l9.54.38c16,.22,32.49.67,47.68,7.53a32.33,32.33,0,0,1,11.61,8.71A18.42,18.42,0,0,1,161,78a10.35,10.35,0,0,0,1.77,4.6,1.15,1.15,0,0,0,.87.41c.77,0,2-.7,4.44-2.67a90.72,90.72,0,0,0,10.05-10.22c.85-.94,1.7-1.92,2.59-2.86a32.9,32.9,0,0,1,6-4.75c3.27-2.18,7-4.67,7.32-7.35a6.83,6.83,0,0,0,0-1.69,13.53,13.53,0,0,1,.34-4.83,8.54,8.54,0,0,1,7.85-5.76m0-4a12.49,12.49,0,0,0-11.59,8.34l-.08.21,0,.21a17.2,17.2,0,0,0-.44,6.27,4,4,0,0,1,0,.69c-.45,1.14-3.84,3.42-5.53,4.55a36.76,36.76,0,0,0-6.63,5.29l0,0,0,0c-.62.67-1.23,1.34-1.81,2-.28.31-.55.62-.83.92l-.05.06,0,0a87.74,87.74,0,0,1-9.55,9.72l-.52.41a1.55,1.55,0,0,1,0-.21v-.1l0-.1a22.61,22.61,0,0,0-4.15-9.49l-.07-.09-.07-.08a36.44,36.44,0,0,0-13.06-9.78C131.22,50.44,113,50.17,98.43,50l-9.49-.38h-.16c-2,0-4.06-.16-6.21-.33l-1-.07a230.09,230.09,0,0,1-45.32-9l-.08,0-.07,0a25.26,25.26,0,0,0-6.52-.85,25.8,25.8,0,0,0-11.88,2.93,13.65,13.65,0,0,0-4.67,3.48l-.63.73-.24.93C12,48.13,7.55,65.92,7,79.67a98.62,98.62,0,0,0,1.75,32.42l0,.06,0,.07A55,55,0,0,0,11.84,121c6.83,15.46,19.4,23.57,29.61,28.91A87.65,87.65,0,0,0,53,155.33l.69.25h.46a39.69,39.69,0,0,0,6,1.56l.12,0h.13l4.36.49h.28a25.91,25.91,0,0,1,7.75,1.54,8.12,8.12,0,0,1,2.86,2.41,10.9,10.9,0,0,1,.73,1.24,15.94,15.94,0,0,0,6.29,7.1l.15.09.16.08.42.2a5.9,5.9,0,0,0,1.25.52l0,0h0a11.83,11.83,0,0,0,5.6.14h4.07a3.25,3.25,0,0,1,.9.91c.16.28.53,1.11.77,1.67l.34.75c2.33,5.41,5.5,12.75,12.36,13.49l.22,0h1a11.46,11.46,0,0,0,9.34-6.08,51,51,0,0,0,3-5.54,30.39,30.39,0,0,1,1.46-2.77,11.94,11.94,0,0,1,9.51-5,11.11,11.11,0,0,1,3.28.5l.58.18h.32a12.6,12.6,0,0,0,9,.27l.25-.09.23-.11a14.16,14.16,0,0,0,5.13-4.43c2.59-3.27,4.75-4.46,5.58-4.46h.1a7.49,7.49,0,0,1,1.41.52,20,20,0,0,0,4.73,1.61h.09a11.61,11.61,0,0,0,2.12.19h.6A71.63,71.63,0,0,0,173,172.77c4.69,6.28,9.37,7.6,12.47,7.6a11.18,11.18,0,0,0,4-.74l.17-.06.16-.08c6-2.93,9.17-10,7.49-16.93a31.21,31.21,0,0,0-3.09-8.06c-.12-.24-.23-.48-.35-.71-.24-.49-.46-.95-.65-1.38A21.11,21.11,0,0,1,197.16,130l1.6-1.49c3.32-3,8.85-8,8.49-16v-.24a20.56,20.56,0,0,0-3.85-10,12.33,12.33,0,0,1-1.17-2.18,8.79,8.79,0,0,1,1.5-6.11l.13-.18.11-.2c.31-.55.66-1.11,1-1.69.19-.29.37-.58.55-.87a39.07,39.07,0,0,0,5.32-10.77v0l0-.06a40.7,40.7,0,0,0,1.06-4.9l0-.21v-.2a9.85,9.85,0,0,1,.86-3.57,10.47,10.47,0,0,1,1.08-1,16.33,16.33,0,0,0,6.25-8.83l.1-.34,0-.36a17.44,17.44,0,0,0-5.09-14.42,20.62,20.62,0,0,0-9.29-6.8l-.06,0-.07,0a11.91,11.91,0,0,0-3.59-.56Z"></path>
      </g>
    </g>
  </g>
  <circle class="cls-1" cx="48.41" cy="138.46" r="5.78"></circle>
  <circle class="cls-1" cx="185.51" cy="93.7" r="5.78"></circle>
  <path class="cls-2" d="M185.51,93.7s-.68-.14-2-.35"></path>
  <path class="cls-3" d="M173.63,92.08C147.85,89.53,86.31,88.89,51.17,134"></path>
  <path class="cls-2" d="M48.18,138c-.38.54-.76,1.09-1.13,1.65"></path>
  <text class="cls-4" transform="translate(5.94 -9.61)">
    <tspan class="cls-5">L</tspan>
    <tspan x="5.5" y="0">ong distan</tspan>
    <tspan class="cls-6" x="58.74" y="0">c</tspan>
    <tspan x="64.04" y="0">e m</tspan>
    <tspan class="cls-7" x="82.61" y="0">o</tspan>
    <tspan class="cls-8" x="89.11" y="0">v</tspan>
    <tspan x="94.76" y="0">es</tspan>
  </text>
</svg>
