<?xml version="1.0" encoding="UTF-8"?>
<svg xmlns="http://www.w3.org/2000/svg" id="Pink" viewBox="0 0 226.77 226.77">
  <defs>
    <style>.cls-1{font-size:12px;font-family:MyriadPro-Regular, Myriad Pro;}.cls-2{letter-spacing:0em;}.cls-3{letter-spacing:-0.01em;}.cls-4{letter-spacing:-0.01em;}.cls-5{fill:#ff3f9a;}.cls-6{fill:none;stroke:#ff3f9a;stroke-miterlimit:10;stroke-width:4px;}</style>
  </defs>
  <text class="cls-1" transform="translate(5.94 -9.61)">
    <tspan class="cls-2">B</tspan>
    <tspan class="cls-3" x="6.55" y="0">o</tspan>
    <tspan class="cls-4" x="12.97" y="0">x</tspan>
    <tspan x="18.35" y="0">es</tspan>
  </text>
  <path class="cls-5" d="M78.08,77.27a3.69,3.69,0,0,1,1.85.49l48.32,27.9a3.69,3.69,0,0,1,1.85,3.21v55.79a3.7,3.7,0,0,1-1.85,3.21L79.93,195.76a3.67,3.67,0,0,1-3.7,0L27.91,167.87a3.72,3.72,0,0,1-1.85-3.21V108.87a3.71,3.71,0,0,1,1.85-3.21l48.32-27.9a3.71,3.71,0,0,1,1.85-.49m0-4a7.76,7.76,0,0,0-3.85,1L25.91,102.2a7.72,7.72,0,0,0-3.85,6.67v55.79a7.74,7.74,0,0,0,3.85,6.67l48.32,27.9a7.71,7.71,0,0,0,7.7,0l48.32-27.9a7.71,7.71,0,0,0,3.85-6.67V108.87a7.7,7.7,0,0,0-3.85-6.67L81.93,74.3a7.66,7.66,0,0,0-3.85-1Z"></path>
  <polyline class="cls-6" points="130.1 106.73 78.08 136.76 78.08 196.83"></polyline>
  <line class="cls-6" x1="78.08" y1="136.76" x2="26.06" y2="106.73"></line>
  <polygon class="cls-5" points="94.19 177.28 99.93 173.96 99.93 154.55 104.22 151.94 97.06 142.15 89.9 159.77 94.19 157.16 94.19 177.28"></polygon>
  <line class="cls-6" x1="52.27" y1="89.11" x2="105.43" y2="120.27"></line>
  <polygon class="cls-5" points="112.94 167.39 118.68 164.08 118.68 144.67 122.97 142.06 115.81 132.27 108.65 149.89 112.94 147.28 112.94 167.39"></polygon>
  <path class="cls-6" d="M130.71,168.47,149,179a3.7,3.7,0,0,0,3.7,0L201,151.13a3.71,3.71,0,0,0,1.85-3.21V59.77a3.7,3.7,0,0,0-1.85-3.2L152.7,28.67a3.7,3.7,0,0,0-3.7,0l-48.32,27.9a3.68,3.68,0,0,0-1.85,3.2v26"></path>
  <polyline class="cls-6" points="202.87 57.64 150.85 87.67 150.85 180.09"></polyline>
  <line class="cls-6" x1="150.85" y1="87.67" x2="98.83" y2="57.64"></line>
  <polygon class="cls-5" points="166.95 155.54 172.69 152.22 172.69 105.46 176.98 102.85 169.82 93.06 162.66 110.68 166.95 108.07 166.95 155.54"></polygon>
  <line class="cls-6" x1="126.65" y1="40.96" x2="178.19" y2="71.18"></line>
  <polygon class="cls-5" points="185.7 145.65 191.44 142.34 191.44 95.57 195.73 92.96 188.57 83.17 181.41 100.79 185.7 98.18 185.7 145.65"></polygon>
  <path class="cls-5" d="M41,132.27,40.23,140s-1,4.93.72,8.67,2,4.65,3.68,6.6a36.05,36.05,0,0,0,3.55,3.63v8.59L45,165.61s-1.59-.7-1.87.08-.45.93,1.3,2S55,174,55,174s1,.49.85-.48a2.43,2.43,0,0,0-1.1-1.88c-.73-.61-4.15-2.69-4.15-2.69v-8.63a6.28,6.28,0,0,0,2.56.57c1.31,0,2.16.2,3.22-.65a6.19,6.19,0,0,0,2.36-3.42,33.68,33.68,0,0,0-.16-5.46c-.2-2.93-.85-10.34-.85-10.34a2.77,2.77,0,0,0-1.06-2.53c-1.27-.73-13.24-7.82-13.24-7.82l-1.3-.73c-.53-.28-.86,0-.9.25S41,132.27,41,132.27Z"></path>
</svg>
