<?xml version="1.0" encoding="UTF-8"?>
<svg xmlns="http://www.w3.org/2000/svg" id="Pink" viewBox="0 0 226.77 226.77">
  <defs>
    <style>.cls-1{fill:none;}.cls-1,.cls-2,.cls-4{stroke:#ff3f9a;stroke-miterlimit:10;}.cls-1,.cls-4{stroke-width:4px;}.cls-2,.cls-3,.cls-4{fill:#ff3f9a;}.cls-2{stroke-width:1.02px;}.cls-5{font-size:12px;font-family:MyriadPro-Regular, Myriad Pro;}.cls-6{letter-spacing:-0.01em;}.cls-7{letter-spacing:0.01em;}.cls-8{letter-spacing:-0.01em;}.cls-9{letter-spacing:-0.01em;}.cls-10{letter-spacing:-0.04em;}.cls-11{letter-spacing:0em;}</style>
  </defs>
  <rect class="cls-1" x="46.06" y="21.53" width="134.66" height="149.32" rx="0.34"></rect>
  <rect class="cls-2" x="51.77" y="170.85" width="123.24" height="10.98" rx="0.31"></rect>
  <rect class="cls-3" x="61.78" y="171.53" width="17.48" height="36.64" rx="5.17"></rect>
  <rect class="cls-3" x="147.52" y="171.53" width="17.48" height="36.64" rx="4.31"></rect>
  <line class="cls-1" x1="113.39" y1="21.53" x2="113.39" y2="170.85"></line>
  <rect class="cls-3" x="101.09" y="160.27" width="25.95" height="13.66"></rect>
  <path class="cls-4" d="M102.46,132.05H94.77a.56.56,0,0,1-.53-.59V122.4a.57.57,0,0,1,.53-.59h7.69a.56.56,0,0,1,.53.59v9.06A.56.56,0,0,1,102.46,132.05Z"></path>
  <path class="cls-4" d="M102.46,77.49H94.77a.57.57,0,0,1-.53-.59V67.84a.56.56,0,0,1,.53-.59h7.69a.56.56,0,0,1,.53.59V76.9A.56.56,0,0,1,102.46,77.49Z"></path>
  <line class="cls-1" x1="98.62" y1="72.37" x2="98.62" y2="126.93"></line>
  <path class="cls-4" d="M132,132.05h-7.69a.56.56,0,0,1-.53-.59V122.4a.57.57,0,0,1,.53-.59H132a.57.57,0,0,1,.53.59v9.06A.56.56,0,0,1,132,132.05Z"></path>
  <path class="cls-4" d="M132,77.49h-7.69a.57.57,0,0,1-.53-.59V67.84a.56.56,0,0,1,.53-.59H132a.56.56,0,0,1,.53.59V76.9A.57.57,0,0,1,132,77.49Z"></path>
  <line class="cls-1" x1="128.15" y1="72.37" x2="128.15" y2="126.93"></line>
  <rect class="cls-3" x="94.24" y="122.4" width="8.75" height="9.05"></rect>
  <rect class="cls-3" x="124.38" y="123" width="8.75" height="9.05"></rect>
  <rect class="cls-3" x="123.78" y="67.25" width="8.75" height="9.05"></rect>
  <rect class="cls-3" x="94.24" y="67.84" width="8.75" height="9.05"></rect>
  <text class="cls-5" transform="translate(5.94 -9.61)">
    <tspan class="cls-6">L</tspan>
    <tspan x="5.5" y="0">ocal </tspan>
    <tspan class="cls-7" x="28.62" y="0">M</tspan>
    <tspan class="cls-8" x="38.34" y="0">o</tspan>
    <tspan class="cls-9" x="44.84" y="0">v</tspan>
    <tspan x="50.5" y="0">es</tspan>
    <tspan class="cls-10" x="61.26" y="0"> </tspan>
    <tspan class="cls-11" x="63.37" y="0">V2 or other</tspan>
  </text>
</svg>
